H0918M_states
version=1
nRows=5
nColumns=55
inDegrees=yes

# SIMM Motion File Header:
name H0918M_states
datacolumns 55
datarows 5
otherdata 1
range 0.00000000 0.00137729
endheader
time	/jointset/ground_pelvis/pelvis_tilt/value	/jointset/ground_pelvis/pelvis_tilt/speed	/jointset/ground_pelvis/pelvis_tx/value	/jointset/ground_pelvis/pelvis_tx/speed	/jointset/ground_pelvis/pelvis_ty/value	/jointset/ground_pelvis/pelvis_ty/speed	/jointset/hip_r/hip_flexion_r/value	/jointset/hip_r/hip_flexion_r/speed	/jointset/knee_r/knee_angle_r/value	/jointset/knee_r/knee_angle_r/speed	/jointset/ankle_r/ankle_angle_r/value	/jointset/ankle_r/ankle_angle_r/speed	/jointset/hip_l/hip_flexion_l/value	/jointset/hip_l/hip_flexion_l/speed	/jointset/knee_l/knee_angle_l/value	/jointset/knee_l/knee_angle_l/speed	/jointset/ankle_l/ankle_angle_l/value	/jointset/ankle_l/ankle_angle_l/speed	/forceset/hamstrings_r/activation	/forceset/hamstrings_r/fiber_length	/forceset/bifemsh_r/activation	/forceset/bifemsh_r/fiber_length	/forceset/glut_max_r/activation	/forceset/glut_max_r/fiber_length	/forceset/iliopsoas_r/activation	/forceset/iliopsoas_r/fiber_length	/forceset/rect_fem_r/activation	/forceset/rect_fem_r/fiber_length	/forceset/vasti_r/activation	/forceset/vasti_r/fiber_length	/forceset/gastroc_r/activation	/forceset/gastroc_r/fiber_length	/forceset/soleus_r/activation	/forceset/soleus_r/fiber_length	/forceset/tib_ant_r/activation	/forceset/tib_ant_r/fiber_length	/forceset/hamstrings_l/activation	/forceset/hamstrings_l/fiber_length	/forceset/bifemsh_l/activation	/forceset/bifemsh_l/fiber_length	/forceset/glut_max_l/activation	/forceset/glut_max_l/fiber_length	/forceset/iliopsoas_l/activation	/forceset/iliopsoas_l/fiber_length	/forceset/rect_fem_l/activation	/forceset/rect_fem_l/fiber_length	/forceset/vasti_l/activation	/forceset/vasti_l/fiber_length	/forceset/gastroc_l/activation	/forceset/gastroc_l/fiber_length	/forceset/soleus_l/activation	/forceset/soleus_l/fiber_length	/forceset/tib_ant_l/activation	/forceset/tib_ant_l/fiber_length
      0.00000000	      0.67490991	    -32.78092081	      0.00000000	      1.00000000	      0.93975800	      0.05458730	      8.50538658	    -33.02396951	     -3.20583064	     10.07798384	      3.78028386	     56.66191630	     15.84858557	    281.13090951	    -71.48909001	   -206.14219328	     -9.77414432	     36.28272426	      0.01000000	      0.10120672	      0.01000000	      0.17075979	      0.01000000	      0.09039274	      0.01000000	      0.09675403	      0.06939250	      0.09534018	      0.20754800	      0.04737750	      0.08186980	      0.06357261	      0.05331400	      0.04786549	      0.17609700	      0.07526605	      0.01257850	      0.07127857	      0.02281470	      0.13648949	      0.01109230	      0.09705393	      0.37701800	      0.08819197	      0.01000000	      0.14146049	      0.01000000	      0.09948170	      0.01000000	      0.03342924	      0.01000000	      0.03898950	      0.28661900	      0.08440053
      0.00032662	      0.66416321	    -33.02058436	      0.00032640	      0.99868636	      0.93977529	      0.05130448	      8.49469876	    -32.44959267	     -3.20272111	      9.09985869	      3.79375567	     26.30844978	     15.94040395	    281.08733110	    -71.55655494	   -206.94885036	     -9.75399176	     87.03797467	      0.00995795	      0.10120640	      0.00995795	      0.17076008	      0.00995795	      0.09039177	      0.00995795	      0.09675444	      0.06905119	      0.09534042	      0.20617930	      0.04737756	      0.08145471	      0.06357278	      0.05306220	      0.04786568	      0.17500281	      0.07526607	      0.01252532	      0.07128107	      0.02271541	      0.13648256	      0.01104561	      0.09706312	      0.37375943	      0.08819148	      0.00995795	      0.14145863	      0.00995795	      0.09948498	      0.00995795	      0.03342921	      0.00995795	      0.03898982	      0.28445462	      0.08440063
      0.00065324	      0.65334173	    -33.23952277	      0.00065240	      0.99752025	      0.93979151	      0.04801983	      8.48417202	    -32.03211710	     -3.19980235	      8.88953225	      3.79778877	     -1.12794391	     16.03219589	    280.97273235	    -71.62426666	   -207.65403842	     -9.71736837	    137.05012934	      0.00991590	      0.10120546	      0.00991590	      0.17076076	      0.00991590	      0.09038916	      0.00991590	      0.09675560	      0.06871185	      0.09534116	      0.20482304	      0.04737773	      0.08104214	      0.06357322	      0.05281174	      0.04786614	      0.17391774	      0.07526624	      0.01247238	      0.07128869	      0.02261658	      0.13646574	      0.01099912	      0.09709079	      0.37054371	      0.08818999	      0.00991590	      0.14145337	      0.00991590	      0.09949459	      0.00991590	      0.03342938	      0.00991590	      0.03899116	      0.28231403	      0.08440073
      0.00097986	      0.64245159	    -33.44167415	      0.00097804	      0.99647080	      0.93980666	      0.04473045	      8.47376092	    -31.73495733	     -3.19684645	      9.29925349	      3.79332527	    -25.75864006	     16.12394189	    280.80973148	    -71.69219254	   -208.26046368	     -9.66460340	    185.79012343	      0.00987384	      0.10120397	      0.00987384	      0.17076166	      0.00987384	      0.09038529	      0.00987384	      0.09675741	      0.06837447	      0.09534238	      0.20347906	      0.04737801	      0.08063207	      0.06357383	      0.05256263	      0.04786669	      0.17284169	      0.07526677	      0.01241967	      0.07130166	      0.02251820	      0.13644298	      0.01095283	      0.09713425	      0.36737003	      0.08818753	      0.00987384	      0.14144513	      0.00987384	      0.09951009	      0.00987384	      0.03343014	      0.00987384	      0.03899420	      0.28019685	      0.08440060
      0.00137729	      0.62911499	    -33.67056485	      0.00137383	      0.99530697	      0.93982364	      0.04072377	      8.46120223	    -31.48002464	     -3.19295219	     10.38326887	      3.77768424	    -52.38466887	     16.23549745	    280.57720600	    -71.77508577	   -208.86584199	     -9.57936774	    242.63091443	      0.00982267	      0.10120147	      0.00982267	      0.17076295	      0.00982267	      0.09037924	      0.00982267	      0.09676041	      0.06796655	      0.09534446	      0.20186009	      0.04737847	      0.08013643	      0.06357465	      0.05226132	      0.04786727	      0.17154438	      0.07526811	      0.01235584	      0.07132474	      0.02239911	      0.13641058	      0.01089678	      0.09720262	      0.36356392	      0.08818322	      0.00982267	      0.14143159	      0.00982267	      0.09953572	      0.00982267	      0.03343247	      0.00982267	      0.03900131	      0.27765176	      0.08439977
